<svg fill="none" xmlns="http://www.w3.org/2000/svg" viewBox="0 0 64 64">
  <defs>
    <linearGradient id="a" x1="12" y1="10" x2="52" y2="54" gradientUnits="userSpaceOnUse">
      <stop stop-color="#4f46e5" />
      <stop offset="1" stop-color="#06b6d4" />
    </linearGradient>
  </defs>
  <rect x="6" y="6" width="52" height="52" rx="16" fill="#eef2ff" />
  <path
    d="M18 35.5c0-4.6 3.5-8.4 8-8.8 1.4-4.6 5.6-7.9 10.6-7.9 5.7 0 10.3 4 11.1 9.4 3.8.5 6.8 3.7 6.8 7.6 0 4.3-3.5 7.8-7.8 7.8H24.7c-3.7 0-6.7-3-6.7-6.7Z"
    fill="url(#a)"
    opacity=".15"
  />
  <path
    d="M19.5 34.2c0-3.8 3-6.9 6.8-7 1-4 4.7-7 9.1-7 4.9 0 9 3.5 9.8 8.2 3 .2 5.4 2.8 5.4 5.9 0 3.4-2.8 6.2-6.2 6.2H25.7c-3.4 0-6.2-2.8-6.2-6.3Z"
    stroke="url(#a)"
    stroke-width="2.4"
    stroke-linecap="round"
    stroke-linejoin="round"
  />
  <path d="M24 35.5h16" stroke="url(#a)" stroke-width="2.4" stroke-linecap="round" />
  <circle cx="24.8" cy="35.2" r="2.1" fill="#06b6d4" />
  <circle cx="33.9" cy="27.6" r="2.1" fill="#4f46e5" />
  <circle cx="42.2" cy="33.2" r="2.1" fill="#22c55e" />
  <path d="M32 17.5v5" stroke="url(#a)" stroke-width="2" stroke-linecap="round" />
  <path d="M46.5 24.5l-3.2 2.1" stroke="url(#a)" stroke-width="2" stroke-linecap="round" />
  <path d="M21.1 24.1l3 2" stroke="url(#a)" stroke-width="2" stroke-linecap="round" />
</svg>
